<svg width="512" height="512" viewBox="0 0 512 512" fill="none" xmlns="http://www.w3.org/2000/svg">
<path fill-rule="evenodd" clip-rule="evenodd" d="M0 16C0 7.16344 7.16344 0 16 0H220C228.837 0 236 7.16345 236 16V292C236 300.837 228.837 308 220 308H16C7.16344 308 0 300.837 0 292V16ZM40 40V268H196V40H40ZM276 16C276 7.16344 283.163 0 292 0H496C504.837 0 512 7.16345 512 16V148C512 156.837 504.837 164 496 164H292C283.163 164 276 156.837 276 148V16ZM316 40V124H472V40H316ZM276 220C276 211.163 283.163 204 292 204H496C504.837 204 512 211.163 512 220V496C512 504.837 504.837 512 496 512H292C283.163 512 276 504.837 276 496V220ZM316 244V472H472V244H316ZM0 364C0 355.163 7.16344 348 16 348H220C228.837 348 236 355.163 236 364V496C236 504.837 228.837 512 220 512H16C7.16344 512 0 504.837 0 496V364ZM40 388V472H196V388H40Z" fill="black"/>
</svg>
